<svg xmlns="http://www.w3.org/2000/svg" xmlns:xlink="http://www.w3.org/1999/xlink" width="481" height="480" viewBox="0 0 481 480"><defs><linearGradient id="a" x1="0.5" y1="-0.453" x2="0.5" y2="1" gradientUnits="objectBoundingBox"><stop offset="0" stop-color="#e0e5ef" stop-opacity="0"/><stop offset="1" stop-color="#e0e5ef"/></linearGradient><linearGradient id="b" x1="0.5" x2="0.5" y2="1" gradientUnits="objectBoundingBox"><stop offset="0" stop-color="#e0e5ef" stop-opacity="0"/><stop offset="0" stop-color="#c5ccd8"/><stop offset="1" stop-color="#909aa9"/></linearGradient><linearGradient id="c" x1="0.5" y1="1" x2="0.5" gradientUnits="objectBoundingBox"><stop offset="0" stop-color="#e0e5ef" stop-opacity="0"/><stop offset="1" stop-color="#909aa9"/></linearGradient><linearGradient id="d" x1="0.5" x2="0.5" y2="1" gradientUnits="objectBoundingBox"><stop offset="0" stop-color="#c9d0db"/><stop offset="1" stop-color="#909aa9"/></linearGradient><linearGradient id="e" x1="1.2" y1="0.363" x2="0.223" y2="0.334" xlink:href="#d"/><linearGradient id="f" x1="-0.095" y1="0.875" x2="0.955" y2="-0.031" xlink:href="#d"/><filter id="g" x="285.702" y="281.195" width="57.512" height="32.141" filterUnits="userSpaceOnUse"><feOffset dy="2" input="SourceAlpha"/><feGaussianBlur stdDeviation="1.5" result="h"/><feFlood flood-opacity="0.161"/><feComposite operator="in" in2="h"/><feComposite in="SourceGraphic"/></filter></defs><g transform="translate(1 0)"><g transform="translate(0 -12)"><g transform="translate(55 68)"><ellipse cx="184" cy="183.966" rx="184" ry="183.966" fill="#f3f3fa"/></g><g transform="translate(64 143.984)"><path d="M44,0,88,56H0Z" fill="#e1e6ef"/><path d="M44,0,88,56H24Z" fill="#cdd3df"/></g><g transform="translate(104 127.986)"><path d="M44,0,88,72H0Z" fill="#e1e6ef"/><path d="M44,0,88,72H64Z" fill="#cdd3df"/></g><g transform="translate(56 191.933)"><path d="M0,60.067A183.747,183.747,0,0,1,9.981.135a604.193,604.193,0,0,1,96.267,5.684C199.753,18.913,230.562,32,304,32c26.248,0,45.995-3.344,60.537-7.642A184.016,184.016,0,1,1,0,60.067Z" fill="#f1f3f6"/><path d="M0,19.8C14.137,12.316,48.493-1.962,101.8.225c71.736,2.944,113.328,29.726,177.789,35.71,20.329,1.887,35.8,1.412,47.451-.121a183.93,183.93,0,0,1-159.4,92.024A184.036,184.036,0,0,1,0,19.8Z" transform="translate(16.361 116.162)" fill="#e8ebf1"/></g><path d="M-2,3.74C-2.25-2.25,4.188-8.562,6.25,0s2.5,20.688,5.5,32.5,6.5,10.75,6.5,3.25-.312-16.75,1.5-25.5,7.875-6.562,10-1-2.812,17.875-1.5,23.25,5.211,7.253,6.75-1.75S33.657,3.74,33.657,3.74,35.789,1.56,37.5,1.75s3,2.75,3,2.75,5.938,20.75,2.25,33-12.375,2.563-17,16S22,89.5,22,89.5s-4.25,1.438-7.25,1A7.89,7.89,0,0,1,10,87.75S15.063,70.25,14.75,60s-3.187-6.25-7-11.5A46.328,46.328,0,0,1,2,37.5S-1.75,9.729-2,3.74Z" transform="translate(380.007 157.155)" fill="#e0e4ec"/><path d="M29.988,14.593c.174-4.315-4.308-8.862-5.744-2.694s-3.829,8.456-3.829,8.456S15.89,28.1,15.89,22.7s.218-8.473-1.044-14.777S9.363,3.193,7.884,7.2s1.958,9.284,1.044,13.156S5.3,25.58,4.229,19.095,5.164-.362,5.164-.362,3.679-1.933,2.488-1.8.4.185.4.185-3.734,15.133-1.167,23.957,7.449,25.8,10.669,35.483s2.611,25.933,2.611,25.933a13.145,13.145,0,0,0,5.047.72,5.477,5.477,0,0,0,3.307-1.981s-3.524-12.606-3.307-19.99,2.219-4.5,4.873-8.284a33.841,33.841,0,0,0,4-7.924S29.814,18.908,29.988,14.593Z" transform="translate(338.007 177.78)" fill="#e0e4ec"/><path d="M29.988,14.593c.174-4.315-4.308-8.862-5.744-2.694s-3.829,8.456-3.829,8.456S15.89,28.1,15.89,22.7s.218-8.473-1.044-14.777S9.363,3.193,7.884,7.2s1.958,9.284,1.044,13.156S5.3,25.58,4.229,19.095,5.164-.362,5.164-.362,3.679-1.933,2.488-1.8.4.185.4.185-3.734,15.133-1.167,23.957,7.449,25.8,10.669,35.483s2.611,25.933,2.611,25.933a13.145,13.145,0,0,0,5.047.72,5.477,5.477,0,0,0,3.307-1.981s-3.524-12.606-3.307-19.99,2.219-4.5,4.873-8.284a33.841,33.841,0,0,0,4-7.924S29.814,18.908,29.988,14.593Z" transform="translate(90.007 257.763)" fill="#e0e4ec"/><path d="M143.3,233.331c57.725-31.349,121.023-71.406,127.244-99.139,11.667-52-90.333-78.667-140.667-81C50.376,51.7,8.124,43.5,0,30.29q.663-5.263,1.621-10.435C14.91,8.621,68.542,9.776,109.442,10.931c27.411.775,49.1,1.549,49.1-1.406,0-8-128-5.666-128-8s144-3.667,144,9-128.334,7-128,15c.114,2.743-4,4,40,8s81,3.667,136,8c37.381.639,104.356,22.832,139.606,52.153A184.078,184.078,0,0,1,182.547,237.526,184.617,184.617,0,0,1,143.3,233.331Z" transform="translate(57.453 198.408)" fill="url(#a)"/></g><g transform="translate(-159.442 139.453) rotate(-20)"><path d="M2,0H6L8,24H0Z" transform="translate(296 144)" fill="#bfc3c9"/><g transform="translate(0 16)"><rect width="56" height="56" rx="28" transform="translate(272 144)" fill="#909aa9"/><ellipse cx="60" cy="24" rx="60" ry="24" transform="translate(240 160)" fill="url(#b)"/><ellipse cx="36" cy="12" rx="36" ry="12" transform="translate(264 174)" fill="#909aa9"/></g><path d="M0,0H72L96,88H-24Z" transform="translate(264 200)" opacity="0.6" fill="url(#c)"/><circle cx="2" cy="2" r="2" transform="translate(298 142)" fill="#909aa9"/></g><path d="M33.989,403.59v-.056C30.442,394.187,18.9,389.8,9.1,391.147c7.263-4.223,19.256-5.349,24.887,1.126v.056c5.63-6.419,17.68-5.349,24.887-1.126-9.8-1.295-21.34,3.1-24.887,12.387Z" transform="translate(247.999 -220.698)" fill="#909aa9" opacity="0.65"/><path d="M21.052,395.329V395.3c-1.7-4.488-7.245-6.6-11.949-5.948,3.488-2.028,9.246-2.568,11.95.541v.027c2.7-3.082,8.489-2.568,11.95-.541-4.7-.622-10.246,1.487-11.95,5.948Z" transform="translate(230.999 -245.698)" fill="#909aa9" opacity="0.65"/><path d="M17.385,392.987v-.019c-1.181-3.111-5.022-4.572-8.283-4.123,2.417-1.405,6.409-1.78,8.283.375v.019c1.874-2.136,5.884-1.78,8.283-.375-3.261-.431-7.1,1.031-8.283,4.123Z" transform="translate(297.999 -232.698)" fill="#909aa9" opacity="0.35"/><path d="M17.385,392.987v-.019c-1.181-3.111-5.022-4.572-8.283-4.123,2.417-1.405,6.409-1.78,8.283.375v.019c1.874-2.136,5.884-1.78,8.283-.375-3.261-.431-7.1,1.031-8.283,4.123Z" transform="translate(280.999 -255.698)" fill="#909aa9" opacity="0.35"/><path d="M14.844,391.365v-.013c-.818-2.156-3.482-3.17-5.742-2.858,1.676-.974,4.443-1.234,5.742.26v.013c1.3-1.481,4.079-1.234,5.742-.26-2.26-.3-4.924.715-5.742,2.858Z" transform="translate(328.999 -243.698)" fill="#909aa9" opacity="0.35"/><ellipse cx="12.835" cy="3.414" rx="12.835" ry="3.414" transform="translate(261.875 366.503)" fill="#ced1d5" opacity="0.64"/><path d="M0,0H4.9V88.248a4.832,4.832,0,0,1-2.463.943A4.709,4.709,0,0,1,0,88.248Z" transform="translate(282.865 282.226)" fill="url(#d)"/><path d="M0,.677s4.83-1.54,13.41-.621A24.678,24.678,0,0,0,28.192-3s-4.9,4.55-4.9,13.742,7.563,27.832,7.563,27.832S27.588,29.508,13.411,36.7,0,30.91,0,30.91Z" transform="translate(333.116 280.42)" fill="url(#e)"/><path d="M0,1.354s6.03,2.92,14.694.542C25.663-1.114,36.3-6,46.718-6,64.8-6,60.058,2.58,60.058,2.58s3.351,29.033.077,36.081c-1.455,2.834,4.9-7.89-13.176-7.89-10.088,0-20.163,4.66-31.806,7.8A25.4,25.4,0,0,1,0,38.124Z" transform="translate(282.865 279.743)" fill="url(#f)"/><g transform="matrix(1, 0, 0, 1, -1, 0)" filter="url(#g)"><path d="M-16.663-1.608l2.084-3.6c.515-1.03,1.005-2.084,1.471-3.113h.1c-.049,1.152-.172,2.893-.172,4.045v2.672Zm9.585,0H-9.113V-11.977h-5.368L-20.83-1.314V1.7h7.648v4.56h4.069V1.7h2.035ZM3.463,4.153c3.849,0,6.472-3.285,6.472-9.56,0-6.226-2.623-9.364-6.472-9.364s-6.447,3.089-6.447,9.364S-.386,4.153,3.463,4.153Zm0-3.383c-1.3,0-2.329-1.177-2.329-6.177,0-4.976,1.03-6.006,2.329-6.006s2.353,1.03,2.353,6.006C5.816-.407,4.762.77,3.463.77ZM18.1-6.511l2.084-3.6c.515-1.03,1.005-2.084,1.471-3.113h.1c-.049,1.152-.172,2.893-.172,4.045v2.672Zm9.585,0H25.648V-16.88H20.279L13.93-6.217V-3.2h7.648v4.56h4.069V-3.2h2.035Z" transform="translate(311.03 300.58)" fill="#fff"/></g></g></svg>