<svg xmlns="http://www.w3.org/2000/svg" xmlns:xlink="http://www.w3.org/1999/xlink" width="480" height="456" viewBox="0 0 480 456"><defs><linearGradient id="a" x1="1.128" y1="0.988" x2="0.364" y2="1" gradientUnits="objectBoundingBox"><stop offset="0" stop-color="#e0e5ef" stop-opacity="0"/><stop offset="1" stop-color="#e0e5ef"/></linearGradient><linearGradient id="c" x1="-0.566" y1="0.5" x2="0.944" y2="0.771" gradientUnits="objectBoundingBox"><stop offset="0" stop-color="#fff" stop-opacity="0"/><stop offset="1" stop-color="#909aa9"/></linearGradient><linearGradient id="d" x1="-0.392" y1="1.114" x2="0.5" y2="0.396" gradientUnits="objectBoundingBox"><stop offset="0" stop-color="#fff" stop-opacity="0"/><stop offset="1" stop-color="#ebedf5"/></linearGradient><linearGradient id="e" x1="-0.906" y1="1.646" x2="0.636" y2="0.061" xlink:href="#d"/><linearGradient id="f" x1="-0.109" y1="1.931" x2="0.736" y2="0.141" xlink:href="#d"/></defs><g transform="translate(0 -24)"><circle cx="184" cy="184" r="184" transform="translate(56 68)" fill="#f3f3fa"/><path d="M2920,292h0c-6.075,0-11-26.535-11-59.269s4.925-59.269,11-59.269c.026,0,8.121.387,12.89-6.2s6.188-11.924,6.188-20.142c0-28.2,10.094-48.237,19.422-52.117,2.688-.567,6.875.673,11-3.584s5.5-7.715,5.5-13.445C2975,47.061,2983.619,22,2994.25,22s19.25,25.062,19.25,55.976c0,5.73-.458,8.5,3.667,12.759s10.148,3.7,12.834,4.27c9.329,3.881,16.5,27.21,16.5,55.409a98.941,98.941,0,0,0,1.6,16.464s3.083,9.748,7.563,4.527,6.277-12.253,7.047-18.827c2.189-18.691,6.894-31.8,11.287-31.8,4.482,0,8.337,13.637,10.069,33.393.51,5.816,1.514,9.666,4.483,14.489s7.393,4.8,7.393,4.8H3096c4.46,0,8.3,13.507,10.049,33.18.346,3.889.676,6.259,3.643,9.489s8.227,3.429,8.227,3.429h.08c1.485,0,2.926,1.48,4.282,4.4a54.782,54.782,0,0,1,3.5,12c2.078,10.573,3.222,24.63,3.222,39.581,0,5.612-.163,11.151-.483,16.463H2920Zm208.516,0h0Z" transform="translate(-2852.515 76.334)" fill="url(#a)"/><path d="M117,208H.7c-.466-6.453-.7-13.181-.7-20,0-18.163,1.664-35.24,4.686-48.083a58.6,58.6,0,0,1,5.086-14.573C11.745,121.8,13.84,120,16,120l.116,0s7.651-.242,11.967-4.166,4.8-6.8,5.3-11.527C35.927,80.408,41.513,64,48,64a16.6,16.6,0,0,0,3.3-1.014A6.153,6.153,0,0,0,53.365,61.5c6.515-6.342,9.13-14.884,10.25-22.871C66.8,15.924,73.642,0,80.032,0,86.55,0,92.158,16.566,94.676,40.567c.742,7.065,2.2,11.742,6.521,17.6A14.3,14.3,0,0,0,111.951,64h.081c6.487,0,12.073,16.409,14.617,40.307.5,4.725.983,7.6,5.3,11.527S143.915,120,143.915,120l.116,0c2.16,0,4.255,1.8,6.228,5.344a58.6,58.6,0,0,1,5.086,14.573c3.022,12.844,4.686,29.921,4.686,48.083,0,6.818-.237,13.546-.7,20H117Zm42.328,0h0ZM.7,208h0Z" transform="translate(215.969 164)" fill="url(#a)"/><g transform="translate(-1760 63.19)" opacity="0.65"><path d="M395.676,66.185h5.813A37.112,37.112,0,0,0,400.805,72c0,2.394.257,8.064.627,10.772h-5.813a94.459,94.459,0,0,0,.741-10.9A52.725,52.725,0,0,0,395.676,66.185Zm0,18.209h5.813a37.111,37.111,0,0,0-.684,5.813c0,2.394.257,8.064.627,10.772h-5.813a94.463,94.463,0,0,0,.741-10.9A52.723,52.723,0,0,0,395.676,84.394Zm0,18.124h5.813a37.113,37.113,0,0,0-.684,5.813c0,2.394.257,8.064.627,10.772h-5.813a94.464,94.464,0,0,0,.741-10.9A52.725,52.725,0,0,0,395.676,102.518Zm-8.207,0h5.813a37.108,37.108,0,0,0-.684,5.813c0,2.394.257,8.064.627,10.772h-5.813a94.488,94.488,0,0,0,.741-10.9,52.739,52.739,0,0,0-.684-5.685ZM387.3,88.982h5.984a19.589,19.589,0,0,0-.684,4.175,50.871,50.871,0,0,0,.57,7.708h-5.642a74.975,74.975,0,0,0,.456-7.922A25.3,25.3,0,0,0,387.3,88.982Zm22.911,7.181s.741-4.56,4.046-6.383,6.9-4.047,6.9-4.047a14.183,14.183,0,0,1-4.616,7.808C412.489,97.189,410.209,96.163,410.209,96.163Zm-4.046,3.021a12.006,12.006,0,0,1,4.616-.855c1.881.228,7.181,2.451,7.694,2.679,0,0-4.731,2.337-9.176.684s-3.134-2.508-3.134-2.508Zm1.083-13.108s-1.539,6.155-1.71,7.637a5.9,5.9,0,0,0,1.881,4.274s2.28-1.2,1.938-4.73a17.507,17.507,0,0,0-2.109-7.181Z" transform="translate(1450.818 65.815)" fill="#909aa9"/><path d="M395.676,66.185h5.813A37.112,37.112,0,0,0,400.805,72c0,2.394.257,8.064.627,10.772h-5.813a94.459,94.459,0,0,0,.741-10.9A52.725,52.725,0,0,0,395.676,66.185Zm0,18.209h5.813a37.111,37.111,0,0,0-.684,5.813c0,2.394.257,8.064.627,10.772h-5.813a94.463,94.463,0,0,0,.741-10.9A52.723,52.723,0,0,0,395.676,84.394Zm0,18.124h5.813a37.113,37.113,0,0,0-.684,5.813c0,2.394.257,8.064.627,10.772h-5.813a94.464,94.464,0,0,0,.741-10.9A52.725,52.725,0,0,0,395.676,102.518Zm-8.207,0h5.813a37.108,37.108,0,0,0-.684,5.813c0,2.394.257,8.064.627,10.772h-5.813a94.488,94.488,0,0,0,.741-10.9,52.739,52.739,0,0,0-.684-5.685ZM387.3,88.982h5.984a19.589,19.589,0,0,0-.684,4.175,50.871,50.871,0,0,0,.57,7.708h-5.642a74.975,74.975,0,0,0,.456-7.922A25.3,25.3,0,0,0,387.3,88.982Zm22.911,7.181s.741-4.56,4.046-6.383,6.9-4.047,6.9-4.047a14.183,14.183,0,0,1-4.616,7.808C412.489,97.189,410.209,96.163,410.209,96.163Zm-4.046,3.021a12.006,12.006,0,0,1,4.616-.855c1.881.228,7.181,2.451,7.694,2.679,0,0-4.731,2.337-9.176.684s-3.134-2.508-3.134-2.508Zm1.083-13.108s-1.539,6.155-1.71,7.637a5.9,5.9,0,0,0,1.881,4.274s2.28-1.2,1.938-4.73a17.507,17.507,0,0,0-2.109-7.181Z" transform="translate(1450.818 120.319)" fill="#909aa9"/><path d="M395.676,66.185h5.813A37.112,37.112,0,0,0,400.805,72c0,2.394.257,8.064.627,10.772h-5.813a94.459,94.459,0,0,0,.741-10.9A52.725,52.725,0,0,0,395.676,66.185Zm0,18.209h5.813a37.111,37.111,0,0,0-.684,5.813c0,2.394.257,8.064.627,10.772h-5.813a94.463,94.463,0,0,0,.741-10.9A52.723,52.723,0,0,0,395.676,84.394Zm0,18.124h5.813a37.113,37.113,0,0,0-.684,5.813c0,2.394.257,8.064.627,10.772h-5.813a94.464,94.464,0,0,0,.741-10.9A52.725,52.725,0,0,0,395.676,102.518Zm-8.207,0h5.813a37.108,37.108,0,0,0-.684,5.813c0,2.394.257,8.064.627,10.772h-5.813a94.488,94.488,0,0,0,.741-10.9,52.739,52.739,0,0,0-.684-5.685ZM387.3,88.982h5.984a19.589,19.589,0,0,0-.684,4.175,50.871,50.871,0,0,0,.57,7.708h-5.642a74.975,74.975,0,0,0,.456-7.922A25.3,25.3,0,0,0,387.3,88.982Zm22.911,7.181s.741-4.56,4.046-6.383,6.9-4.047,6.9-4.047a14.183,14.183,0,0,1-4.616,7.808C412.489,97.189,410.209,96.163,410.209,96.163Zm-4.046,3.021a12.006,12.006,0,0,1,4.616-.855c1.881.228,7.181,2.451,7.694,2.679,0,0-4.731,2.337-9.176.684s-3.134-2.508-3.134-2.508Zm1.083-13.108s-1.539,6.155-1.71,7.637a5.9,5.9,0,0,0,1.881,4.274s2.28-1.2,1.938-4.73a17.507,17.507,0,0,0-2.109-7.181Z" transform="translate(1450.818 174.466)" fill="#909aa9"/><path d="M226.243,103.946l9.539-6.2.442.314-9.6,6.355ZM211.87,79.175s-.548-4.587-3.774-6.548-6.72-4.333-6.72-4.333a14.183,14.183,0,0,0,4.284,8c3.889,3.815,6.21,2.886,6.21,2.886Zm3.916,3.188a12.009,12.009,0,0,0-4.576-1.049c-1.889.149-7.278,2.146-7.8,2.352,0,0,4.628,2.534,9.139,1.07S215.785,82.364,215.785,82.364Zm-.53-13.142s1.278,6.215,1.387,7.7a5.9,5.9,0,0,1-2.059,4.191s-2.227-1.292-1.737-4.808A17.51,17.51,0,0,1,215.255,69.221Z" transform="translate(1625.701 63.831)" fill="#909aa9"/><path d="M93.583,251.743l-10.121-7.215-.454.295,10.215,7.326ZM75.949,265.767s-1.211-3.774-4.25-4.9-6.369-2.552-6.369-2.552a12.171,12.171,0,0,0,4.915,6.036c3.9,2.578,5.7,1.416,5.7,1.416Zm3.82,2.046a10.307,10.307,0,0,0-4.027-.136,41.677,41.677,0,0,0-6.187,3.256s4.313,1.378,7.874-.592S79.768,267.813,79.768,267.813Zm-2.594-10.985s2.092,5.027,2.427,6.262a5.062,5.062,0,0,1-1.05,3.867s-2.087-.724-2.249-3.767a15.026,15.026,0,0,1,.872-6.363Z" transform="translate(1753.67 -101.939)" fill="#758095"/><path d="M241.2,601.955l-9.705-4.424-.335.323,9.8,4.5Z" transform="translate(1597.682 -433.984)" fill="#909aa9"/><path d="M527.5,66.185h5.813a58.721,58.721,0,0,0-.684,7.347c0,3.025.257,10.192.627,13.613h-5.813s.8-7.784.741-13.775C528.166,71.074,527.5,66.185,527.5,66.185Z" transform="translate(1310.678 120.319)" fill="#909aa9"/><path d="M527.5,66.185h5.813a58.721,58.721,0,0,0-.684,7.347c0,3.025.257,10.192.627,13.613h-5.813s.8-7.784.741-13.775C528.166,71.074,527.5,66.185,527.5,66.185Z" transform="translate(1310.678 174.704)" fill="#909aa9"/></g><g transform="translate(44.8 -59.145) rotate(9)"><path d="M1.5,0c.828,0,6.214,4.6,6.214,5.429S2.328,3,1.5,3a1.5,1.5,0,0,1,0-3Z" transform="matrix(0.914, 0.407, -0.407, 0.914, 329.465, 183.672)" fill="#909aa9"/><path d="M.924,0c.511,0,3.83,2.835,3.83,3.345s-3.319-1.5-3.83-1.5A.924.924,0,0,1,.924,0Z" transform="translate(327.543 190.966) rotate(-21)" fill="#909aa9"/><path d="M-2600.714,1269s36.715,15.428,34.429-1.857-26.714,7.714,7.857,17" transform="translate(2955 -1062)" fill="none" stroke="#909aa9" stroke-width="1" stroke-dasharray="4"/><ellipse cx="0.5" cy="1.5" rx="0.5" ry="1.5" transform="translate(334 200)" fill="#909aa9"/><ellipse cx="0.5" cy="1.5" rx="0.5" ry="1.5" transform="translate(346 205)" fill="#909aa9"/><ellipse cx="12" cy="8" rx="12" ry="8" transform="matrix(0.966, 0.259, -0.259, 0.966, 334.781, 187.285)" fill="#fff"/><path d="M2916.12-980.2a9.513,9.513,0,0,0,4.88-8.3,9.516,9.516,0,0,0-1.169-4.571,14.933,14.933,0,0,1,2.072-.141,17.071,17.071,0,0,1,3.713.417A9.466,9.466,0,0,1,2928-986.5a9.5,9.5,0,0,1-6.683,9.075A16.172,16.172,0,0,1,2916.12-980.2Z" transform="translate(-2580 1183)" fill="#909aa9"/><path d="M2924.351-979.013v0A9.448,9.448,0,0,0,2928-986.5a9.479,9.479,0,0,0-1.407-4.978,12.326,12.326,0,0,1,1.369,1.328c1.8,2.045,2.483,4.309,1.931,6.374a6.307,6.307,0,0,1-3.21,3.83A10.408,10.408,0,0,1,2924.351-979.013Z" transform="translate(-2574 1185)" fill="#909aa9"/><ellipse cx="4" cy="6" rx="4" ry="6" transform="translate(338 180)" fill="#ebedf5"/><ellipse cx="5.5" cy="8" rx="5.5" ry="8" transform="translate(350.254 178.598) rotate(51)" fill="#ced1d5"/><ellipse cx="0.5" cy="1.5" rx="0.5" ry="1.5" transform="translate(349 202)" fill="#909aa9"/><ellipse cx="0.5" cy="1.5" rx="0.5" ry="1.5" transform="translate(340 200)" fill="#dae8e6"/></g><g transform="translate(322 263.987)" opacity="0.45"><path d="M387.469,102.518h5.813a37.108,37.108,0,0,0-.684,5.813c0,2.394.257,8.064.627,10.772h-5.813a94.488,94.488,0,0,0,.741-10.9,52.739,52.739,0,0,0-.684-5.685ZM387.3,88.982h5.984a19.589,19.589,0,0,0-.684,4.175,50.871,50.871,0,0,0,.57,7.708h-5.642a74.975,74.975,0,0,0,.456-7.922A25.3,25.3,0,0,0,387.3,88.982Z" transform="translate(-368.182 -88.982)" fill="#909aa9"/><path d="M395.676,66.185h5.813A37.112,37.112,0,0,0,400.805,72c0,2.394.257,8.064.627,10.772h-5.813a94.459,94.459,0,0,0,.741-10.9A52.725,52.725,0,0,0,395.676,66.185Zm0,18.209h5.813a37.111,37.111,0,0,0-.684,5.813c0,2.394.257,8.064.627,10.772h-5.813a94.463,94.463,0,0,0,.741-10.9A52.723,52.723,0,0,0,395.676,84.394Zm0,18.124h5.813a37.113,37.113,0,0,0-.684,5.813c0,2.394.257,8.064.627,10.772h-5.813a94.464,94.464,0,0,0,.741-10.9A52.725,52.725,0,0,0,395.676,102.518Zm-8.207,0h5.813a37.108,37.108,0,0,0-.684,5.813c0,2.394.257,8.064.627,10.772h-5.813a94.488,94.488,0,0,0,.741-10.9,52.739,52.739,0,0,0-.684-5.685ZM387.3,88.982h5.984a19.589,19.589,0,0,0-.684,4.175,50.871,50.871,0,0,0,.57,7.708h-5.642a74.975,74.975,0,0,0,.456-7.922A25.3,25.3,0,0,0,387.3,88.982Z" transform="translate(-368.182 -34.479)" fill="#909aa9"/><path d="M75.949,265.767s-1.211-3.774-4.25-4.9-6.369-2.552-6.369-2.552a12.171,12.171,0,0,0,4.915,6.036c3.9,2.578,5.7,1.416,5.7,1.416Zm3.82,2.046a10.307,10.307,0,0,0-4.027-.136,41.678,41.678,0,0,0-6.187,3.256s4.313,1.378,7.874-.592S79.768,267.813,79.768,267.813Zm-2.594-10.985s2.092,5.027,2.427,6.262a5.062,5.062,0,0,1-1.05,3.867s-2.087-.724-2.249-3.767a15.026,15.026,0,0,1,.872-6.363Z" transform="translate(-65.33 -256.737)" fill="#758095"/><path d="M527.5,66.185h5.813a58.721,58.721,0,0,0-.684,7.347c0,3.025.257,10.192.627,13.613h-5.813s.8-7.784.741-13.775C528.166,71.074,527.5,66.185,527.5,66.185Z" transform="translate(-508.322 -34.479)" fill="#909aa9"/><path d="M241.2,601.955l-9.705-4.424-.335.323,9.8,4.5Z" transform="translate(-221.318 -588.781)" fill="#909aa9"/></g><g transform="translate(185 234.987)" opacity="0.65"><path d="M393.111,102.518H387.3a37.108,37.108,0,0,1,.684,5.813c0,2.394-.257,8.064-.627,10.772h5.813a94.488,94.488,0,0,1-.741-10.9,52.739,52.739,0,0,1,.684-5.685Zm.171-13.536H387.3a19.589,19.589,0,0,1,.684,4.175,50.871,50.871,0,0,1-.57,7.708h5.642a74.975,74.975,0,0,1-.456-7.922A25.3,25.3,0,0,1,393.282,88.982Z" transform="translate(-379.091 -88.982)" fill="#909aa9"/><path d="M393.111,66.185H387.3A37.112,37.112,0,0,1,387.982,72c0,2.394-.257,8.064-.627,10.772h5.813a94.459,94.459,0,0,1-.741-10.9A52.725,52.725,0,0,1,393.111,66.185Zm0,18.209H387.3a37.111,37.111,0,0,1,.684,5.813c0,2.394-.257,8.064-.627,10.772h5.813a94.463,94.463,0,0,1-.741-10.9A52.723,52.723,0,0,1,393.111,84.394Zm0,18.124H387.3a37.113,37.113,0,0,1,.684,5.813c0,2.394-.257,8.064-.627,10.772h5.813a94.464,94.464,0,0,1-.741-10.9A52.725,52.725,0,0,1,393.111,102.518Zm8.207,0H395.5a37.108,37.108,0,0,1,.684,5.813c0,2.394-.257,8.064-.627,10.772h5.813a94.488,94.488,0,0,1-.741-10.9,52.739,52.739,0,0,1,.684-5.685Zm.171-13.536H395.5a19.589,19.589,0,0,1,.684,4.175,50.871,50.871,0,0,1-.57,7.708h5.642a74.975,74.975,0,0,1-.456-7.922A25.3,25.3,0,0,1,401.489,88.982Z" transform="translate(-387.298 -34.479)" fill="#909aa9"/><path d="M69.352,265.767s1.211-3.774,4.25-4.9,6.369-2.552,6.369-2.552a12.171,12.171,0,0,1-4.915,6.036c-3.9,2.578-5.7,1.416-5.7,1.416Zm-3.82,2.046a10.307,10.307,0,0,1,4.027-.136,41.677,41.677,0,0,1,6.187,3.256s-4.313,1.378-7.874-.592S65.532,267.813,65.532,267.813Zm2.594-10.985s-2.092,5.027-2.427,6.262a5.062,5.062,0,0,0,1.05,3.867s2.087-.724,2.249-3.767a15.026,15.026,0,0,0-.872-6.363Z" transform="translate(-46.663 -256.737)" fill="#758095"/><path d="M231.164,601.955l9.705-4.424.335.323-9.8,4.5Z" transform="translate(-217.742 -588.781)" fill="#909aa9"/><path d="M393.111,66.185H387.3A37.112,37.112,0,0,1,387.982,72c0,2.394-.257,8.064-.627,10.772h5.813a94.459,94.459,0,0,1-.741-10.9A52.725,52.725,0,0,1,393.111,66.185Zm0,18.209H387.3a37.111,37.111,0,0,1,.684,5.813c0,2.394-.257,8.064-.627,10.772h5.813a94.463,94.463,0,0,1-.741-10.9A52.723,52.723,0,0,1,393.111,84.394Zm0,18.124H387.3a37.113,37.113,0,0,1,.684,5.813c0,2.394-.257,8.064-.627,10.772h5.813a94.464,94.464,0,0,1-.741-10.9A52.725,52.725,0,0,1,393.111,102.518Zm8.207,0H395.5a37.108,37.108,0,0,1,.684,5.813c0,2.394-.257,8.064-.627,10.772h5.813a94.488,94.488,0,0,1-.741-10.9,52.739,52.739,0,0,1,.684-5.685Zm.171-13.536H395.5a19.589,19.589,0,0,1,.684,4.175,50.871,50.871,0,0,1-.57,7.708h5.642a74.975,74.975,0,0,1-.456-7.922A25.3,25.3,0,0,1,401.489,88.982Z" transform="translate(-387.298 19.669)" fill="#909aa9"/><path d="M533.26,66.185h-5.813a58.721,58.721,0,0,1,.684,7.347c0,3.025-.257,10.192-.627,13.613h5.813s-.8-7.784-.741-13.775C532.6,71.074,533.26,66.185,533.26,66.185Z" transform="translate(-519.135 -34.479)" fill="#909aa9"/><path d="M533.26,66.185h-5.813a58.721,58.721,0,0,1,.684,7.347c0,3.025-.257,10.192-.627,13.613h5.813s-.8-7.784-.741-13.775C532.6,71.074,533.26,66.185,533.26,66.185Z" transform="translate(-519.135 19.907)" fill="#909aa9"/></g><g transform="translate(2998 -1388)"><path d="M395.676,66.185h5.813A37.112,37.112,0,0,0,400.805,72c0,2.394.257,8.064.627,10.772h-5.813a94.459,94.459,0,0,0,.741-10.9A52.725,52.725,0,0,0,395.676,66.185Zm0,18.209h5.813a37.111,37.111,0,0,0-.684,5.813c0,2.394.257,8.064.627,10.772h-5.813a94.463,94.463,0,0,0,.741-10.9A52.723,52.723,0,0,0,395.676,84.394Zm0,18.124h5.813a37.113,37.113,0,0,0-.684,5.813c0,2.394.257,8.064.627,10.772h-5.813a94.464,94.464,0,0,0,.741-10.9A52.725,52.725,0,0,0,395.676,102.518Zm-8.207,0h5.813a37.108,37.108,0,0,0-.684,5.813c0,2.394.257,8.064.627,10.772h-5.813a94.488,94.488,0,0,0,.741-10.9,52.739,52.739,0,0,0-.684-5.685ZM387.3,88.982h5.984a19.589,19.589,0,0,0-.684,4.175,50.871,50.871,0,0,0,.57,7.708h-5.642a74.975,74.975,0,0,0,.456-7.922A25.3,25.3,0,0,0,387.3,88.982Zm22.911,7.181s.741-4.56,4.046-6.383,6.9-4.047,6.9-4.047a14.183,14.183,0,0,1-4.616,7.808C412.489,97.189,410.209,96.163,410.209,96.163Zm-4.046,3.021a12.006,12.006,0,0,1,4.616-.855c1.881.228,7.181,2.451,7.694,2.679,0,0-4.731,2.337-9.176.684s-3.134-2.508-3.134-2.508Zm1.083-13.108s-1.539,6.155-1.71,7.637a5.9,5.9,0,0,0,1.881,4.274s2.28-1.2,1.938-4.73a17.507,17.507,0,0,0-2.109-7.181Z" transform="translate(-3225.182 1457.005)" fill="#909aa9"/><path d="M395.676,66.185h5.813A37.112,37.112,0,0,0,400.805,72c0,2.394.257,8.064.627,10.772h-5.813a94.459,94.459,0,0,0,.741-10.9A52.725,52.725,0,0,0,395.676,66.185Zm0,18.209h5.813a37.111,37.111,0,0,0-.684,5.813c0,2.394.257,8.064.627,10.772h-5.813a94.463,94.463,0,0,0,.741-10.9A52.723,52.723,0,0,0,395.676,84.394Zm0,18.124h5.813a37.113,37.113,0,0,0-.684,5.813c0,2.394.257,8.064.627,10.772h-5.813a94.464,94.464,0,0,0,.741-10.9A52.725,52.725,0,0,0,395.676,102.518Zm-8.207,0h5.813a37.108,37.108,0,0,0-.684,5.813c0,2.394.257,8.064.627,10.772h-5.813a94.488,94.488,0,0,0,.741-10.9,52.739,52.739,0,0,0-.684-5.685ZM387.3,88.982h5.984a19.589,19.589,0,0,0-.684,4.175,50.871,50.871,0,0,0,.57,7.708h-5.642a74.975,74.975,0,0,0,.456-7.922A25.3,25.3,0,0,0,387.3,88.982Zm22.911,7.181s.741-4.56,4.046-6.383,6.9-4.047,6.9-4.047a14.183,14.183,0,0,1-4.616,7.808C412.489,97.189,410.209,96.163,410.209,96.163Zm-4.046,3.021a12.006,12.006,0,0,1,4.616-.855c1.881.228,7.181,2.451,7.694,2.679,0,0-4.731,2.337-9.176.684s-3.134-2.508-3.134-2.508Zm1.083-13.108s-1.539,6.155-1.71,7.637a5.9,5.9,0,0,0,1.881,4.274s2.28-1.2,1.938-4.73a17.507,17.507,0,0,0-2.109-7.181Z" transform="translate(-3225.182 1511.509)" fill="#909aa9"/><path d="M226.243,103.946l9.539-6.2.442.314-9.6,6.355ZM211.87,79.175s-.548-4.587-3.774-6.548-6.72-4.333-6.72-4.333a14.183,14.183,0,0,0,4.284,8c3.889,3.815,6.21,2.886,6.21,2.886Zm3.916,3.188a12.009,12.009,0,0,0-4.576-1.049c-1.889.149-7.278,2.146-7.8,2.352,0,0,4.628,2.534,9.139,1.07S215.785,82.364,215.785,82.364Zm-.53-13.142s1.278,6.215,1.387,7.7a5.9,5.9,0,0,1-2.059,4.191s-2.227-1.292-1.737-4.808A17.51,17.51,0,0,1,215.255,69.221Z" transform="translate(-3050.299 1455.021)" fill="#909aa9"/><path d="M93.583,251.743l-10.121-7.215-.454.295,10.215,7.326ZM75.949,265.767s-1.211-3.774-4.25-4.9-6.369-2.552-6.369-2.552a12.171,12.171,0,0,0,4.915,6.036c3.9,2.578,5.7,1.416,5.7,1.416Zm3.82,2.046a10.307,10.307,0,0,0-4.027-.136,41.677,41.677,0,0,0-6.187,3.256s4.313,1.378,7.874-.592S79.768,267.813,79.768,267.813Zm-2.594-10.985s2.092,5.027,2.427,6.262a5.062,5.062,0,0,1-1.05,3.867s-2.087-.724-2.249-3.767a15.026,15.026,0,0,1,.872-6.363Z" transform="translate(-2922.33 1289.25)" fill="#909aa9"/><path d="M241.2,601.955l-9.705-4.424-.335.323,9.8,4.5Z" transform="translate(-3078.318 957.206)" fill="#909aa9"/><path d="M527.5,66.185h5.813a58.721,58.721,0,0,0-.684,7.347c0,3.025.257,10.192.627,13.613h-5.813s.8-7.784.741-13.775C528.166,71.074,527.5,66.185,527.5,66.185Z" transform="translate(-3365.322 1511.509)" fill="#909aa9"/><path d="M395.676,66.185h5.813A37.112,37.112,0,0,0,400.805,72c0,2.394.257,8.064.627,10.772h-5.813a94.459,94.459,0,0,0,.741-10.9A52.725,52.725,0,0,0,395.676,66.185Zm0,18.209h5.813a37.111,37.111,0,0,0-.684,5.813c0,2.394.257,8.064.627,10.772h-5.813a94.463,94.463,0,0,0,.741-10.9A52.723,52.723,0,0,0,395.676,84.394Zm0,18.124h5.813a37.113,37.113,0,0,0-.684,5.813c0,2.394.257,8.064.627,10.772h-5.813a94.464,94.464,0,0,0,.741-10.9A52.725,52.725,0,0,0,395.676,102.518Zm-8.207,0h5.813a37.108,37.108,0,0,0-.684,5.813c0,2.394.257,8.064.627,10.772h-5.813a94.488,94.488,0,0,0,.741-10.9,52.739,52.739,0,0,0-.684-5.685ZM387.3,88.982h5.984a19.589,19.589,0,0,0-.684,4.175,50.871,50.871,0,0,0,.57,7.708h-5.642a74.975,74.975,0,0,0,.456-7.922A25.3,25.3,0,0,0,387.3,88.982Z" transform="translate(-3225.182 1565.656)" fill="#909aa9"/><path d="M527.5,66.185h5.813a58.721,58.721,0,0,0-.684,7.347c0,3.025.257,10.192.627,13.613h-5.813s.8-7.784.741-13.775C528.166,71.074,527.5,66.185,527.5,66.185Z" transform="translate(-3365.322 1565.894)" fill="#909aa9"/><g transform="translate(0 55)"><path d="M395.676,66.185h5.813A37.112,37.112,0,0,0,400.805,72c0,2.394.257,8.064.627,10.772h-5.813a94.459,94.459,0,0,0,.741-10.9A52.725,52.725,0,0,0,395.676,66.185Zm0,18.209h5.813a37.111,37.111,0,0,0-.684,5.813c0,2.394.257,8.064.627,10.772h-5.813a94.463,94.463,0,0,0,.741-10.9A52.723,52.723,0,0,0,395.676,84.394Zm0,18.124h5.813a37.113,37.113,0,0,0-.684,5.813c0,2.394.257,8.064.627,10.772h-5.813a94.464,94.464,0,0,0,.741-10.9A52.725,52.725,0,0,0,395.676,102.518Zm-8.207,0h5.813a37.108,37.108,0,0,0-.684,5.813c0,2.394.257,8.064.627,10.772h-5.813a94.488,94.488,0,0,0,.741-10.9,52.739,52.739,0,0,0-.684-5.685ZM387.3,88.982h5.984a19.589,19.589,0,0,0-.684,4.175,50.871,50.871,0,0,0,.57,7.708h-5.642a74.975,74.975,0,0,0,.456-7.922A25.3,25.3,0,0,0,387.3,88.982Z" transform="translate(-3225.182 1565.656)" fill="#909aa9"/><path d="M527.5,66.185h5.813a58.721,58.721,0,0,0-.684,7.347c0,3.025.257,10.192.627,13.613h-5.813s.8-7.784.741-13.775C528.166,71.074,527.5,66.185,527.5,66.185Z" transform="translate(-3365.322 1565.894)" fill="#909aa9"/></g></g><path d="M2989,62c-10.838-4.087-16.3,0-32,0-26.51,0-48-8.954-48-20s21.49-20,48-20h286c8.836,0-14,7.164-14,16s-5.914,13.75-14.75,13.75c0,0-16.75,2.251-28.75,5.251S3165,68.714,3165,68.714,3127.392,110,3081,110c-38.041,0-70.176-13.246-80.647-31.653C2998.219,74.6,2999.838,66.087,2989,62Z" transform="translate(-2841 324)" fill="#d1d6e2"/><path d="M525.021,66.584a31.23,31.23,0,0,1,7.085,10.425c2.772,6.6,5.877,13.459,8.386,14.78s3.695,10.033-8.053,8.185S525.021,66.584,525.021,66.584Z" transform="translate(-377.752 244.966)" fill="#fff"/><ellipse cx="49" cy="12" rx="49" ry="12" transform="translate(66 350)" opacity="0.15" fill="url(#c)"/><path d="M525.494,68.3a32.341,32.341,0,0,1,6.953,16.851c.847,8.628,2.933,13.332,5.151,13.016a12.659,12.659,0,0,1-5.991-.025C528.092,97.37,524.074,68.412,525.494,68.3Z" transform="translate(-377.273 245.91)" fill="url(#d)"/><path d="M537.949,131.675a34.415,34.415,0,0,0,14.137,1.09c6.9-.975,8.727-13.747-.647-15.059-7.267-1.02-6.026-12.167-7.366-22.433s-3.56-18.848-4.364-23.026,9.689-.719,11.73-4.892,3.525-6.606-1.228-10.6-5.391-10-12.341-13.4-11.791-2.618-17.8-1.4-5.492.829-9.4,8.2-2.687,4.347-6.236,21.283-6.694,39.223-6.56,49.062,6.426,16.715,19.952,18.467,19.419-.606,19.856-4.448c.279-2.443,1.905-11.053-7.8-12.535-4.83-.74-7.363-1.347-7.363-1.347" transform="translate(-392.871 232.445)" fill="#fff"/><path d="M0,1.694S1.095.017,1.966,0a3.688,3.688,0,0,1,2.35.5A6.164,6.164,0,0,1,5.8,2.478S.049,3.576,0,1.694Z" transform="translate(162.167 293.909) rotate(99)" fill="#757f95"/><path d="M522.077,37.922c-2.054-.536-2.278,2.085-2.278,2.085s-2.89-.313-2.6,1.743c.357,2.566,5.831,2.443,5.831,2.443S524.583,38.578,522.077,37.922Z" transform="matrix(0.695, 0.719, -0.719, 0.695, -201.115, -137.626)" fill="#757f95"/><path d="M503.084,74.624s-1.45,17.9,1.1,22.385c1.511,2.657,5.744,3.472,10.6,4.365.776.143,1.036,1.451,2.714,1.808s2.7-.271,4-.38c2.039-.168,3.7-1.786,5.451-2.409,6.068-2.157,2.831-6.2,0-8.893s-3.738-10.346-8.593-14.5" transform="translate(-388.501 249.626)" fill="url(#e)"/><path d="M531.516,76.393c-3.6-3.507-6.766.555-6.766.555s-6.2-4.888-8.5.26C513.373,83.63,528.051,94,528.051,94S535.2,79.982,531.516,76.393Z" transform="translate(-382.216 249.516)" fill="url(#f)"/><path d="M132,344s-6,6-4,8,7-4,7-4,20.506-23.944,40.506-43.444A283.9,283.9,0,0,1,216,272a383.479,383.479,0,0,0-39.776,29.3C154.724,319.3,132,344,132,344Z" transform="translate(1 -1)" fill="#909aa9"/><path d="M504.118,75.051s5.02,15.274,7.571,19.76c3.236,5.688,9.468,8.51,15.533,6.355s2.831-5.527,0-8.223S523.148,81.155,518.293,77" transform="translate(-389.497 248.564)" fill="#fff"/><path d="M505.743,52.715s-6.088-1.338-6.755,3.318,4.181,7.509,7.656.6" transform="translate(-74.387 -191.14) rotate(61)" fill="#fff"/><ellipse cx="61" cy="7.5" rx="61" ry="7.5" transform="translate(218 346)" fill="#c8cede"/><path d="M513.708,48.635a.553.553,0,0,0-.481.286h0l-.009.013a4.434,4.434,0,0,1-2.973,2.139h-.017v0a.548.548,0,0,0-.469.457l-.01,0-.374.993s.314-.013.775-.081l.053-.283.1-.538v.8c.173-.029.359-.067.556-.111v-.688l.059.418.034.247a5.168,5.168,0,0,0,2.2-1.048,3.762,3.762,0,0,0,1.061-1.821c.037-.143.05-.229.05-.229A.556.556,0,0,0,513.708,48.635Z" transform="matrix(0.978, 0.208, -0.208, 0.978, -346.634, 127.608)" fill="#757f95"/><ellipse cx="74" cy="8" rx="74" ry="8" transform="translate(276 363)" fill="#d1d6e2"/><path d="M524.909,37.964c-3.242-.846-3.594,3.291-3.594,3.291s-4.56-.494-4.105,2.75c.563,4.049,9.2,3.856,9.2,3.856S528.862,39,524.909,37.964Z" transform="translate(-393.505 211.484)" fill="#757f95" opacity="0.6"/><path d="M528.781,38.021c-4.865-1.27-5.394,4.938-5.394,4.938s-6.844-.742-6.161,4.127c.845,6.076,13.809,5.786,13.809,5.786S534.714,39.574,528.781,38.021Z" transform="translate(-168.768 -198.46) rotate(51)" fill="#757f95" opacity="0.2"/><ellipse cx="100" cy="10" rx="100" ry="10" transform="translate(176 351)" fill="#c0c9db"/><path d="M-2693,1268s15.6.8,10.6,16,10.4,17,13.4,24,0,42.6,0,42.6" transform="translate(2909 -996)" fill="none" stroke="#909aa9" stroke-width="0.2"/><path d="M3,0H6l.5,3.961L7,8H6L4.658,4.422Z" transform="translate(220.059 346.2) rotate(-30)" fill="#909aa9"/><path d="M0,0H3l.5,3.961L4,8H3L1.658,4.422Z" transform="translate(222.683 356.208) rotate(-60)" fill="#909aa9"/><path d="M7,0H4L3.5,3.961,3,8H4L5.342,4.422Z" transform="translate(248.549 341.2) rotate(30)" fill="#909aa9"/><path d="M0,8H3l.5-3.961L4,0H3L1.658,3.578Z" transform="translate(247.657 360.208) rotate(-120)" fill="#909aa9"/><path d="M4.725,0H3.431L3.218,1.708,3,3.45h.431L4.01,1.907Z" transform="matrix(0.966, 0.259, -0.259, 0.966, 240.235, 347.541)" fill="#fff"/><path d="M0,3.45H1.294l.213-1.708L1.725,0H1.294L.715,1.543Z" transform="translate(243.633 356) rotate(-135)" fill="#fff"/><path d="M1.725,3.45H.431L.218,1.742,0,0H.431L1.01,1.543Z" transform="matrix(-0.966, 0.259, -0.259, -0.966, 236.193, 351.65)" fill="#fff"/><path d="M0,0H1.294l.214,1.708L1.725,3.45H1.294L.715,1.907Z" transform="translate(232.36 353.561) rotate(-45)" fill="#fff"/><ellipse cx="39.5" cy="11" rx="39.5" ry="11" transform="translate(289 363)" fill="#c8cede"/></g></svg>